<?xml version="1.0" encoding="utf-8"?>
<!-- Generator: Adobe Illustrator 24.0.1, SVG Export Plug-In . SVG Version: 6.00 Build 0)  -->
<svg version="1.1" id="_x30_" xmlns="http://www.w3.org/2000/svg" xmlns:xlink="http://www.w3.org/1999/xlink" x="0px" y="0px"
	 viewBox="0 0 1417.3 1417.3" style="enable-background:new 0 0 1417.3 1417.3;" xml:space="preserve">
<style type="text/css">
	.st0{fill:none;}
	.st1{display:none;}
	.st2{display:inline;fill:#FFFFFF;}
	.st3{display:inline;}
	.st4{fill:#FFFFFF;stroke:#000000;stroke-width:3;stroke-miterlimit:10;}
	.st5{fill:none;stroke:#000000;stroke-width:0.7087;stroke-linecap:round;stroke-linejoin:round;stroke-miterlimit:10;}
	.st6{fill:#39AFFF;stroke:#000000;stroke-width:3;stroke-miterlimit:10;}
</style>
<rect y="0" class="st0" width="1417.3" height="1417.3"/>
<g class="st1">
	<circle class="st2" cx="710.7" cy="708.8" r="648"/>
	<circle class="st3" cx="710.7" cy="708.8" r="627.5"/>
</g>
<rect x="259.1" y="-5.1" class="st1" width="899.2" height="1417.3"/>
<g id="LWPOLYLINE">
	<g>
		<path class="st4" d="M308.1,1144.1L447.2,1005h-87.2c-130.1-173.5-112.9-416.3,40.5-569.6l308.2,308.2l308.2-308.2
			c153.4,153.4,170.6,396.1,40.5,569.6h-87.2l139.1,139.1c221.2-221.2,221.2-580,0-801.2c-31.1-31.1-65.8-58.5-103.3-81.6
			L708.7,558.6L411.4,261.3C145,425.5,62.2,774.5,226.5,1040.9C249.6,1078.3,277,1113,308.1,1144.1z"/>
	</g>
</g>
<g id="LINE">
	<line class="st5" x1="445.9" y1="475.6" x2="708.7" y2="738.4"/>
</g>
<g id="LINE_1_">
	<line class="st5" x1="708.7" y1="738.4" x2="971.5" y2="475.6"/>
</g>
<g id="LWPOLYLINE_1_">
	<path class="st6" d="M616.2,404.6l92.4,92.4l354.1-354.1C853.9,19.7,596,13.9,381.8,127.6v535.6L512.6,794v184.9l130.7,130.7V739.8
		L512.6,609.1V212c101.7-37.5,212.1-45.1,318-21.8L616.2,404.6z"/>
</g>
<g id="LINE_2_">
	<line class="st5" x1="875.9" y1="1273.5" x2="875.9" y2="748"/>
</g>
<g id="LWPOLYLINE_2_">
	<polygon class="st6" points="739.5,774.3 774.1,808.9 774.1,1240.3 904.8,1371.1 904.8,754.7 832,681.9 	"/>
</g>
</svg>
